# 3ds Max Wavefront OBJ Exporter v0.97b - (c)2007 guruware
# File Created: 29.08.2014 11:15:27

#
# object Bsmt1_4
#

v  106.9031 26.4350 -3.8100
v  106.9031 26.4350 -0.2786
v  83.8313 26.4350 -3.8100
v  83.8313 26.4350 -0.2786
# 4 vertices

vn 0.0000 1.0000 0.0000
vn 0.0000 1.0000 0.0000
vn 0.0000 1.0000 0.0000
vn 0.0000 1.0000 0.0000
vn 0.0000 1.0000 0.0000
vn 0.0000 1.0000 0.0000
# 6 vertex normals

vt 0.4818 0.2881 0.0000
vt 0.3249 0.2881 0.0000
vt 0.3249 0.2641 0.0000
vt 0.4818 0.2641 0.0000
# 4 texture coords

g Bsmt1_4
s 1
f 3/4/1 4/1/2 2/2/3 
f 2/2/4 1/3/5 3/4/6 
# 2 faces

