# 3ds Max Wavefront OBJ Exporter v0.97b - (c)2007 guruware
# File Created: 29.08.2014 11:15:49

#
# object Bsmt1_7
#

v  60.8436 -34.8694 -3.8100
v  60.8436 -34.8694 -0.2786
v  45.2940 -34.8694 -3.8100
v  45.2940 -34.8694 -0.2786
# 4 vertices

vn 0.0000 -1.0000 0.0000
vn 0.0000 -1.0000 0.0000
vn 0.0000 -1.0000 0.0000
vn 0.0000 -1.0000 0.0000
vn 0.0000 -1.0000 0.0000
vn 0.0000 -1.0000 0.0000
# 6 vertex normals

vt 0.2259 0.7464 0.0000
vt 0.2259 0.7224 0.0000
vt 0.3317 0.7224 0.0000
vt 0.3317 0.7464 0.0000
# 4 texture coords

g Bsmt1_7
s 1
f 3/2/1 1/3/2 2/4/3 
f 2/4/4 4/1/5 3/2/6 
# 2 faces

