# 3ds Max Wavefront OBJ Exporter v0.97b - (c)2007 guruware
# File Created: 29.08.2014 11:19:54

#
# object Bsmt1_23
#

v  -80.6808 -34.8694 -3.8100
v  -64.8511 -34.8694 -3.8100
v  -80.6808 -34.8694 -0.2786
v  -64.8511 -34.8694 -0.2786
v  -85.1971 -15.1809 -3.8100
v  -85.1971 -15.1809 -0.2786
# 6 vertices

vn -0.0000 -1.0000 0.0000
vn 0.0000 -1.0000 0.0000
vn -0.0000 -1.0000 0.0000
vn -0.0000 -1.0000 0.0000
vn -0.0000 -1.0000 0.0000
vn -0.0000 -1.0000 0.0000
vn -0.9747 -0.2236 0.0000
vn -0.9747 -0.2236 0.0000
vn -0.9747 -0.2236 0.0000
vn -0.9747 -0.2236 0.0000
vn -0.9747 -0.2236 0.0000
vn -0.9747 -0.2236 0.0000
# 12 vertex normals

vt 0.4554 0.5887 0.0000
vt 0.4554 0.5649 0.0000
vt 0.5624 0.5649 0.0000
vt 0.5624 0.5887 0.0000
vt 0.6333 0.0828 0.0000
vt 0.6333 0.1070 0.0000
vt 0.4273 0.1070 0.0000
vt 0.4273 0.0828 0.0000
# 8 texture coords

g Bsmt1_23
s 1
f 1/2/1 2/3/2 4/4/3 
f 4/4/4 3/1/5 1/2/6 
s off
f 1/5/7 3/6/8 6/7/9 
f 6/7/10 5/8/11 1/5/12 
# 4 faces

