# 3ds Max Wavefront OBJ Exporter v0.97b - (c)2007 guruware
# File Created: 29.08.2014 11:15:16

#
# object FL1_14
#

v  14.0521 26.4350 -0.2786
v  14.0521 26.4350 3.5936
v  -2.0993 26.4350 -0.2786
v  -2.0993 26.4350 3.5936
# 4 vertices

vn 0.0000 1.0000 0.0000
vn 0.0000 1.0000 0.0000
vn 0.0000 1.0000 0.0000
vn 0.0000 1.0000 0.0000
vn 0.0000 1.0000 0.0000
vn 0.0000 1.0000 0.0000
# 6 vertex normals

vt 0.1169 0.5274 0.0000
vt 0.1169 0.5010 0.0000
vt 0.2268 0.5010 0.0000
vt 0.2268 0.5274 0.0000
# 4 texture coords

g FL1_14
s 1
f 1/2/1 3/3/2 4/4/3 
f 4/4/4 2/1/5 1/2/6 
# 2 faces

