# 3ds Max Wavefront OBJ Exporter v0.97b - (c)2007 guruware
# File Created: 29.08.2014 11:15:53

#
# object FL1_3
#

v  106.9031 -34.8694 -0.2786
v  106.9031 -34.8694 3.6717
v  83.8313 -34.8694 -0.2786
v  83.8313 -34.8694 3.6717
# 4 vertices

vn 0.0000 -1.0000 0.0000
vn 0.0000 -1.0000 0.0000
vn 0.0000 -1.0000 0.0000
vn 0.0000 -1.0000 0.0000
vn 0.0000 -1.0000 0.0000
vn 0.0000 -1.0000 0.0000
# 6 vertex normals

vt 0.0020 0.2590 0.0000
vt 0.0020 0.2321 0.0000
vt 0.1589 0.2321 0.0000
vt 0.1589 0.2590 0.0000
# 4 texture coords

g FL1_3
s 1
f 3/2/1 1/3/2 2/4/3 
f 2/4/4 4/1/5 3/2/6 
# 2 faces

