# 3ds Max Wavefront OBJ Exporter v0.97b - (c)2007 guruware
# File Created: 29.08.2014 11:15:29

#
# object FL1_26
#

v  -94.5011 26.4350 -0.2786
v  -94.5011 26.4350 3.5936
v  -80.1085 26.4350 -0.2786
v  -80.1085 26.4350 3.5936
v  -87.6977 -4.1236 -0.2786
v  -87.6977 -4.1236 3.5936
# 6 vertices

vn 0.0000 1.0000 0.0000
vn 0.0000 1.0000 0.0000
vn 0.0000 1.0000 0.0000
vn 0.0000 1.0000 0.0000
vn 0.0000 1.0000 0.0000
vn 0.0000 1.0000 0.0000
vn -0.9761 -0.2173 0.0000
vn -0.9761 -0.2173 0.0000
vn -0.9761 -0.2173 0.0000
vn -0.9761 -0.2173 0.0000
vn -0.9761 -0.2173 0.0000
vn -0.9761 -0.2173 0.0000
# 12 vertex normals

vt 0.3346 0.7172 0.0000
vt 0.3346 0.6910 0.0000
vt 0.4319 0.6910 0.0000
vt 0.4319 0.7172 0.0000
vt 0.2131 0.1093 0.0000
vt 0.2131 0.0828 0.0000
vt 0.4222 0.0828 0.0000
vt 0.4222 0.1093 0.0000
# 8 texture coords

g FL1_26
s off
f 3/2/1 1/3/2 2/4/3 
f 2/4/4 4/1/5 3/2/6 
f 2/5/7 1/6/8 5/7/9 
f 5/7/10 6/8/11 2/5/12 
# 4 faces

