# 3ds Max Wavefront OBJ Exporter v0.97b - (c)2007 guruware
# File Created: 29.08.2014 11:15:55

#
# object FL2_1
#

v  123.1819 -34.8694 3.6717
v  123.1819 -34.8694 7.4659
v  106.9031 -34.8694 3.6717
v  106.9031 -34.8694 7.4659
v  123.1819 -8.8075 3.6717
v  123.1819 -8.8075 7.4659
# 6 vertices

vn 0.0000 -1.0000 0.0000
vn 0.0000 -1.0000 0.0000
vn 0.0000 -1.0000 0.0000
vn 0.0000 -1.0000 0.0000
vn 0.0000 -1.0000 0.0000
vn 0.0000 -1.0000 0.0000
vn 1.0000 0.0000 0.0000
vn 1.0000 0.0000 0.0000
vn 1.0000 0.0000 0.0000
vn 1.0000 0.0000 0.0000
vn 1.0000 0.0000 0.0000
vn 1.0000 0.0000 0.0000
# 12 vertex normals

vt 0.0020 0.5907 0.0000
vt 0.0020 0.5649 0.0000
vt 0.1127 0.5649 0.0000
vt 0.1127 0.5907 0.0000
vt 0.4304 0.1407 0.0000
vt 0.4304 0.1149 0.0000
vt 0.6077 0.1149 0.0000
vt 0.6077 0.1407 0.0000
# 8 texture coords

g FL2_1
s 1
f 3/2/1 1/3/2 2/4/3 
f 2/4/4 4/1/5 3/2/6 
s off
f 2/5/7 1/6/8 5/7/9 
f 5/7/10 6/8/11 2/5/12 
# 4 faces

