# 3ds Max Wavefront OBJ Exporter v0.97b - (c)2007 guruware
# File Created: 29.08.2014 11:15:24

#
# object FL2_6
#

v  83.8313 26.4350 3.5936
v  83.8313 26.4350 7.4659
v  60.8436 26.4350 3.5936
v  60.8436 26.4350 7.4659
# 4 vertices

vn 0.0000 1.0000 0.0000
vn 0.0000 1.0000 0.0000
vn 0.0000 1.0000 0.0000
vn 0.0000 1.0000 0.0000
vn 0.0000 1.0000 0.0000
vn 0.0000 1.0000 0.0000
# 6 vertex normals

vt 0.3198 0.2904 0.0000
vt 0.1634 0.2904 0.0000
vt 0.1634 0.2641 0.0000
vt 0.3198 0.2641 0.0000
# 4 texture coords

g FL2_6
s 1
f 2/2/1 1/3/2 3/4/3 
f 3/4/4 4/1/5 2/2/6 
# 2 faces

