# 3ds Max Wavefront OBJ Exporter v0.97b - (c)2007 guruware
# File Created: 29.08.2014 11:15:40

#
# object FL2_15
#

v  -2.0993 -34.8694 3.6717
v  -2.0993 -34.8694 7.4659
v  -17.7075 -34.8694 3.6717
v  -17.7075 -34.8694 7.4659
# 4 vertices

vn 0.0000 -1.0000 0.0000
vn 0.0000 -1.0000 0.0000
vn 0.0000 -1.0000 0.0000
vn 0.0000 -1.0000 0.0000
vn 0.0000 -1.0000 0.0000
vn 0.0000 -1.0000 0.0000
# 6 vertex normals

vt 0.6785 0.4949 0.0000
vt 0.6785 0.4691 0.0000
vt 0.7847 0.4691 0.0000
vt 0.7847 0.4949 0.0000
# 4 texture coords

g FL2_15
s 1
f 3/2/1 1/3/2 2/4/3 
f 2/4/4 4/1/5 3/2/6 
# 2 faces

