# 3ds Max Wavefront OBJ Exporter v0.97b - (c)2007 guruware
# File Created: 29.08.2014 11:15:11

#
# object FL2_18
#

v  -17.7075 26.4350 3.5936
v  -17.7075 26.4350 7.4659
v  -33.3951 26.4350 3.5936
v  -33.3951 26.4350 7.4659
# 4 vertices

vn 0.0000 1.0000 0.0000
vn 0.0000 1.0000 0.0000
vn 0.0000 1.0000 0.0000
vn 0.0000 1.0000 0.0000
vn 0.0000 1.0000 0.0000
vn 0.0000 1.0000 0.0000
# 6 vertex normals

vt 0.4517 0.5274 0.0000
vt 0.3449 0.5274 0.0000
vt 0.3449 0.5010 0.0000
vt 0.4517 0.5010 0.0000
# 4 texture coords

g FL2_18
s 1
f 2/2/1 1/3/2 3/4/3 
f 3/4/4 4/1/5 2/2/6 
# 2 faces

