# 3ds Max Wavefront OBJ Exporter v0.97b - (c)2007 guruware
# File Created: 29.08.2014 11:15:18

#
# object FL3_12
#

v  29.9054 26.4350 7.4659
v  29.9054 26.4350 10.6680
v  14.0521 26.4350 7.4659
v  14.0521 26.4350 10.6680
# 4 vertices

vn 0.0000 1.0000 0.0000
vn 0.0000 1.0000 0.0000
vn 0.0000 1.0000 0.0000
vn 0.0000 1.0000 0.0000
vn 0.0000 1.0000 0.0000
vn 0.0000 1.0000 0.0000
# 6 vertex normals

vt 0.3339 0.8316 0.0000
vt 0.2261 0.8316 0.0000
vt 0.2261 0.8099 0.0000
vt 0.3339 0.8099 0.0000
# 4 texture coords

g FL3_12
s 1
f 3/4/1 4/1/2 2/2/3 
f 2/2/4 1/3/5 3/4/6 
# 2 faces

