# 3ds Max Wavefront OBJ Exporter v0.97b - (c)2007 guruware
# File Created: 29.08.2014 11:15:08

#
# object FL3_20
#

v  -33.3951 26.4350 7.4659
v  -33.3951 26.4350 10.6680
v  -48.9701 26.4350 7.4659
v  -48.9701 26.4350 10.6680
# 4 vertices

vn 0.0000 1.0000 0.0000
vn 0.0000 1.0000 0.0000
vn 0.0000 1.0000 0.0000
vn 0.0000 1.0000 0.0000
vn 0.0000 1.0000 0.0000
vn 0.0000 1.0000 0.0000
# 6 vertex normals

vt 0.8874 0.7128 0.0000
vt 0.7814 0.7128 0.0000
vt 0.7814 0.6910 0.0000
vt 0.8874 0.6910 0.0000
# 4 texture coords

g FL3_20
s 1
f 3/4/1 4/1/2 2/2/3 
f 2/2/4 1/3/5 3/4/6 
# 2 faces

