# 3ds Max Wavefront OBJ Exporter v0.97b - (c)2007 guruware
# File Created: 29.08.2014 11:15:32

#
# object FL3_21
#

v  -48.9701 -34.8694 7.4659
v  -48.9701 -34.8694 10.6680
v  -64.8511 -34.8694 7.4659
v  -64.8511 -34.8694 10.6680
# 4 vertices

vn 0.0000 -1.0000 0.0000
vn 0.0000 -1.0000 0.0000
vn 0.0000 -1.0000 0.0000
vn 0.0000 -1.0000 0.0000
vn 0.0000 -1.0000 0.0000
vn 0.0000 -1.0000 0.0000
# 6 vertex normals

vt 0.6573 0.6808 0.0000
vt 0.6573 0.6591 0.0000
vt 0.7654 0.6591 0.0000
vt 0.7654 0.6808 0.0000
# 4 texture coords

g FL3_21
s 1
f 3/2/1 1/3/2 2/4/3 
f 2/4/4 4/1/5 3/2/6 
# 2 faces

