# 3ds Max Wavefront OBJ Exporter v0.97b - (c)2007 guruware
# File Created: 29.08.2014 11:15:46

#
# object FL4_9
#

v  45.2940 -34.8694 10.6680
v  45.2940 -34.8694 13.9739
v  29.9054 -34.8694 10.6680
v  29.9054 -34.8694 13.9739
# 4 vertices

vn 0.0000 -1.0000 0.0000
vn 0.0000 -1.0000 0.0000
vn 0.0000 -1.0000 0.0000
vn 0.0000 -1.0000 0.0000
vn 0.0000 -1.0000 0.0000
vn 0.0000 -1.0000 0.0000
# 6 vertex normals

vt 0.7952 0.5874 0.0000
vt 0.7952 0.5649 0.0000
vt 0.8999 0.5649 0.0000
vt 0.8999 0.5874 0.0000
# 4 texture coords

g FL4_9
s 1
f 3/2/1 1/3/2 2/4/3 
f 2/4/4 4/1/5 3/2/6 
# 2 faces

