# 3ds Max Wavefront OBJ Exporter v0.97b - (c)2007 guruware
# File Created: 29.08.2014 11:15:39

#
# object FL4_15
#

v  -2.0993 -34.8694 10.6680
v  -2.0993 -34.8694 13.9739
v  -17.7075 -34.8694 10.6680
v  -17.7075 -34.8694 13.9739
# 4 vertices

vn 0.0000 -1.0000 0.0000
vn 0.0000 -1.0000 0.0000
vn 0.0000 -1.0000 0.0000
vn 0.0000 -1.0000 0.0000
vn 0.0000 -1.0000 0.0000
vn 0.0000 -1.0000 0.0000
# 6 vertex normals

vt 0.8970 0.5957 0.0000
vt 0.8970 0.6182 0.0000
vt 0.7909 0.6182 0.0000
vt 0.7909 0.5957 0.0000
# 4 texture coords

g FL4_15
s 1
f 2/2/1 4/3/2 3/4/3 
f 3/4/4 1/1/5 2/2/6 
# 2 faces

