# 3ds Max Wavefront OBJ Exporter v0.97b - (c)2007 guruware
# File Created: 29.08.2014 11:15:54

#
# object FL4_1
#

v  123.1819 -34.8694 10.6680
v  123.1819 -34.8694 13.9739
v  106.9031 -34.8694 10.6680
v  106.9031 -34.8694 13.9739
v  123.1819 3.9838 10.6680
v  123.1819 3.9838 13.9739
# 6 vertices

vn 0.0000 -1.0000 0.0000
vn 0.0000 -1.0000 0.0000
vn 0.0000 -1.0000 0.0000
vn 0.0000 -1.0000 0.0000
vn 0.0000 -1.0000 0.0000
vn 0.0000 -1.0000 0.0000
vn 1.0000 0.0000 0.0000
vn 1.0000 0.0000 0.0000
vn 1.0000 0.0000 0.0000
vn 1.0000 0.0000 0.0000
vn 1.0000 0.0000 0.0000
vn 1.0000 0.0000 0.0000
# 12 vertex normals

vt 0.5674 0.5874 0.0000
vt 0.5674 0.5649 0.0000
vt 0.6781 0.5649 0.0000
vt 0.6781 0.5874 0.0000
vt 0.0020 0.0245 0.0000
vt 0.0020 0.0020 0.0000
vt 0.2663 0.0020 0.0000
vt 0.2663 0.0245 0.0000
# 8 texture coords

g FL4_1
s 1
f 3/2/1 1/3/2 2/4/3 
f 2/4/4 4/1/5 3/2/6 
s off
f 2/5/7 1/6/8 5/7/9 
f 5/7/10 6/8/11 2/5/12 
# 4 faces

