# 3ds Max Wavefront OBJ Exporter v0.97b - (c)2007 guruware
# File Created: 29.08.2014 11:15:24

#
# object FL4_6
#

v  83.8313 26.4350 10.6680
v  83.8313 26.4350 13.9755
v  60.8436 26.4350 10.6680
v  60.8436 26.4350 13.9755
# 4 vertices

vn 0.0000 1.0000 0.0000
vn 0.0000 1.0000 0.0000
vn 0.0000 1.0000 0.0000
vn 0.0000 1.0000 0.0000
vn 0.0000 1.0000 0.0000
vn 0.0000 1.0000 0.0000
# 6 vertex normals

vt 0.6432 0.2866 0.0000
vt 0.4869 0.2866 0.0000
vt 0.4869 0.2641 0.0000
vt 0.6432 0.2641 0.0000
# 4 texture coords

g FL4_6
s 1
f 3/4/1 4/1/2 2/2/3 
f 2/2/4 1/3/5 3/4/6 
# 2 faces

