# 3ds Max Wavefront OBJ Exporter v0.97b - (c)2007 guruware
# File Created: 29.08.2014 11:15:19

#
# object FL5_10
#

v  45.2940 26.4350 13.9755
v  45.2940 26.4350 17.1306
v  29.9054 26.4350 13.9755
v  29.9054 26.4350 17.1306
# 4 vertices

vn 0.0000 1.0000 0.0000
vn 0.0000 1.0000 0.0000
vn 0.0000 1.0000 0.0000
vn 0.0000 1.0000 0.0000
vn 0.0000 1.0000 0.0000
vn 0.0000 1.0000 0.0000
# 6 vertex normals

vt 0.4437 0.9370 0.0000
vt 0.3390 0.9370 0.0000
vt 0.3390 0.9156 0.0000
vt 0.4437 0.9156 0.0000
# 4 texture coords

g FL5_10
s 1
f 3/4/1 4/1/2 2/2/3 
f 2/2/4 1/3/5 3/4/6 
# 2 faces

