# 3ds Max Wavefront OBJ Exporter v0.97b - (c)2007 guruware
# File Created: 29.08.2014 11:15:28

#
# object FL5_26
#

v  -80.1085 26.4350 13.9755
v  -94.5011 26.4350 13.9755
v  -80.1085 26.4350 17.1306
v  -94.5011 26.4350 17.1306
v  -87.6977 -4.1236 13.9755
v  -87.6977 -4.1236 17.1306
# 6 vertices

vn 0.0000 1.0000 0.0000
vn 0.0000 1.0000 0.0000
vn 0.0000 1.0000 0.0000
vn 0.0000 1.0000 0.0000
vn 0.0000 1.0000 0.0000
vn 0.0000 1.0000 0.0000
vn -0.9761 -0.2173 0.0000
vn -0.9761 -0.2173 0.0000
vn -0.9761 -0.2173 0.0000
vn -0.9761 -0.2173 0.0000
vn -0.9761 -0.2173 0.0000
vn -0.9761 -0.2173 0.0000
# 12 vertex normals

vt 0.8959 0.8840 0.0000
vt 0.8959 0.8627 0.0000
vt 0.9932 0.8627 0.0000
vt 0.9932 0.8840 0.0000
vt 0.5407 0.0511 0.0000
vt 0.5407 0.0295 0.0000
vt 0.7499 0.0295 0.0000
vt 0.7499 0.0511 0.0000
# 8 texture coords

g FL5_26
s off
f 3/1/1 1/2/2 2/3/3 
f 2/3/4 4/4/5 3/1/6 
f 4/5/7 2/6/8 5/7/9 
f 5/7/10 6/8/11 4/5/12 
# 4 faces

