# 3ds Max Wavefront OBJ Exporter v0.97b - (c)2007 guruware
# File Created: 29.08.2014 11:15:32

#
# object FL5_21
#

v  -48.9701 -34.8694 13.9756
v  -48.9701 -34.8694 17.1306
v  -64.8511 -34.8694 13.9756
v  -64.8511 -34.8694 17.1306
# 4 vertices

vn 0.0000 -1.0000 0.0000
vn 0.0000 -1.0000 0.0000
vn 0.0000 -1.0000 0.0000
vn 0.0000 -1.0000 0.0000
vn 0.0000 -1.0000 0.0000
vn 0.0000 -1.0000 0.0000
# 6 vertex normals

vt 0.7704 0.6805 0.0000
vt 0.7704 0.6591 0.0000
vt 0.8784 0.6591 0.0000
vt 0.8784 0.6805 0.0000
# 4 texture coords

g FL5_21
s 1
f 3/2/1 1/3/2 2/4/3 
f 2/4/4 4/1/5 3/2/6 
# 2 faces

