# 3ds Max Wavefront OBJ Exporter v0.97b - (c)2007 guruware
# File Created: 29.08.2014 11:15:36

#
# object FL5_17
#

v  -17.7075 -34.8694 13.9756
v  -17.7075 -34.8694 17.1306
v  -33.3951 -34.8694 13.9756
v  -33.3951 -34.8694 17.1306
# 4 vertices

vn 0.0000 -1.0000 0.0000
vn 0.0000 -1.0000 0.0000
vn 0.0000 -1.0000 0.0000
vn 0.0000 -1.0000 0.0000
vn 0.0000 -1.0000 0.0000
vn 0.0000 -1.0000 0.0000
# 6 vertex normals

vt 0.3328 0.8632 0.0000
vt 0.3328 0.8847 0.0000
vt 0.2261 0.8847 0.0000
vt 0.2261 0.8632 0.0000
# 4 texture coords

g FL5_17
s 1
f 2/2/1 4/3/2 3/4/3 
f 3/4/4 1/1/5 2/2/6 
# 2 faces

