# 3ds Max Wavefront OBJ Exporter v0.97b - (c)2007 guruware
# File Created: 29.08.2014 11:15:11

#
# object FL5_18
#

v  -17.7075 26.4350 13.9755
v  -17.7075 26.4350 17.1306
v  -33.3951 26.4350 13.9755
v  -33.3951 26.4350 17.1306
# 4 vertices

vn 0.0000 1.0000 0.0000
vn 0.0000 1.0000 0.0000
vn 0.0000 1.0000 0.0000
vn 0.0000 1.0000 0.0000
vn 0.0000 1.0000 0.0000
vn 0.0000 1.0000 0.0000
# 6 vertex normals

vt 0.5720 0.7823 0.0000
vt 0.6787 0.7823 0.0000
vt 0.6787 0.8038 0.0000
vt 0.5720 0.8038 0.0000
# 4 texture coords

g FL5_18
s 1
f 2/4/1 1/1/2 3/2/3 
f 3/2/4 4/3/5 2/4/6 
# 2 faces

