# 3ds Max Wavefront OBJ Exporter v0.97b - (c)2007 guruware
# File Created: 29.08.2014 11:15:43

#
# object FL5_11
#

v  29.9054 -34.8694 13.9756
v  29.9054 -34.8694 17.1306
v  14.0521 -34.8694 13.9756
v  14.0521 -34.8694 17.1306
# 4 vertices

vn 0.0000 -1.0000 0.0000
vn 0.0000 -1.0000 0.0000
vn 0.0000 -1.0000 0.0000
vn 0.0000 -1.0000 0.0000
vn 0.0000 -1.0000 0.0000
vn 0.0000 -1.0000 0.0000
# 6 vertex normals

vt 0.3390 0.8313 0.0000
vt 0.3390 0.8099 0.0000
vt 0.4468 0.8099 0.0000
vt 0.4468 0.8313 0.0000
# 4 texture coords

g FL5_11
s 1
f 3/2/1 1/3/2 2/4/3 
f 2/4/4 4/1/5 3/2/6 
# 2 faces

