# 3ds Max Wavefront OBJ Exporter v0.97b - (c)2007 guruware
# File Created: 29.08.2014 11:15:13

#
# object FL6_16
#

v  -2.0993 26.4350 17.1289
v  -2.0993 26.4350 20.2675
v  -17.7075 26.4350 17.1289
v  -17.7075 26.4350 20.2675
# 4 vertices

vn 0.0000 1.0000 0.0000
vn 0.0000 1.0000 0.0000
vn 0.0000 1.0000 0.0000
vn 0.0000 1.0000 0.0000
vn 0.0000 1.0000 0.0000
vn 0.0000 1.0000 0.0000
# 6 vertex normals

vt 0.6118 0.4423 0.0000
vt 0.7179 0.4423 0.0000
vt 0.7179 0.4636 0.0000
vt 0.6118 0.4636 0.0000
# 4 texture coords

g FL6_16
s 1
f 2/4/1 1/1/2 3/2/3 
f 3/2/4 4/3/5 2/4/6 
# 2 faces

