# 3ds Max Wavefront OBJ Exporter v0.97b - (c)2007 guruware
# File Created: 29.08.2014 11:15:19

#
# object FL6_10
#

v  45.2940 26.4350 17.1289
v  45.2940 26.4350 20.2675
v  29.9054 26.4350 17.1289
v  29.9054 26.4350 20.2675
# 4 vertices

vn 0.0000 1.0000 0.0000
vn 0.0000 1.0000 0.0000
vn 0.0000 1.0000 0.0000
vn 0.0000 1.0000 0.0000
vn 0.0000 1.0000 0.0000
vn 0.0000 1.0000 0.0000
# 6 vertex normals

vt 0.1151 0.9716 0.0000
vt 0.2198 0.9716 0.0000
vt 0.2198 0.9929 0.0000
vt 0.1151 0.9929 0.0000
# 4 texture coords

g FL6_10
s 1
f 2/4/1 1/1/2 3/2/3 
f 3/2/4 4/3/5 2/4/6 
# 2 faces

