# 3ds Max Wavefront OBJ Exporter v0.97b - (c)2007 guruware
# File Created: 29.08.2014 11:15:29

#
# object FL6_23
#

v  -80.6808 -34.8694 17.1289
v  -64.8511 -34.8694 17.1289
v  -80.6808 -34.8694 20.2675
v  -64.8511 -34.8694 20.2675
v  -87.5838 -4.7766 17.1289
v  -87.5838 -4.7766 20.2675
# 6 vertices

vn -0.0000 -1.0000 0.0000
vn -0.0000 -1.0000 0.0000
vn -0.0000 -1.0000 0.0000
vn -0.0000 -1.0000 0.0000
vn -0.0000 -1.0000 0.0000
vn -0.0000 -1.0000 0.0000
vn -0.9747 -0.2236 0.0000
vn -0.9747 -0.2236 0.0000
vn -0.9747 -0.2236 0.0000
vn -0.9747 -0.2236 0.0000
vn -0.9747 -0.2236 0.0000
vn -0.9747 -0.2236 0.0000
# 12 vertex normals

vt 0.3331 0.8897 0.0000
vt 0.3331 0.9109 0.0000
vt 0.2261 0.9109 0.0000
vt 0.2261 0.8897 0.0000
vt 0.9609 0.0020 0.0000
vt 0.9609 0.0235 0.0000
vt 0.7549 0.0235 0.0000
vt 0.7549 0.0020 0.0000
# 8 texture coords

g FL6_23
s 1
f 4/2/1 3/3/2 1/4/3 
f 1/4/4 2/1/5 4/2/6 
s off
f 1/5/7 3/6/8 6/7/9 
f 6/7/10 5/8/11 1/5/12 
# 4 faces

