# 3ds Max Wavefront OBJ Exporter v0.97b - (c)2007 guruware
# File Created: 29.08.2014 11:15:43

#
# object FL6_11
#

v  29.9054 -34.8694 17.1289
v  29.9054 -34.8694 20.2675
v  14.0521 -34.8694 17.1289
v  14.0521 -34.8694 20.2675
# 4 vertices

vn 0.0000 -1.0000 0.0000
vn 0.0000 -1.0000 0.0000
vn 0.0000 -1.0000 0.0000
vn 0.0000 -1.0000 0.0000
vn 0.0000 -1.0000 0.0000
vn 0.0000 -1.0000 0.0000
# 6 vertex normals

vt 0.9313 0.3879 0.0000
vt 0.9313 0.4092 0.0000
vt 0.8234 0.4092 0.0000
vt 0.8234 0.3879 0.0000
# 4 texture coords

g FL6_11
s 1
f 2/2/1 4/3/2 3/4/3 
f 3/4/4 1/1/5 2/2/6 
# 2 faces

