# 3ds Max Wavefront OBJ Exporter v0.97b - (c)2007 guruware
# File Created: 29.08.2014 11:15:54

#
# object FL7_1
#

v  123.1819 -34.8694 20.2675
v  123.1819 -34.8694 23.3409
v  106.9031 -34.8694 20.2675
v  106.9031 -34.8694 23.3409
v  123.1819 3.9838 20.2675
v  123.1819 3.9838 23.3409
# 6 vertices

vn -0.0000 -1.0000 0.0000
vn 0.0000 -1.0000 0.0000
vn 0.0000 -1.0000 0.0000
vn 0.0000 -1.0000 0.0000
vn -0.0000 -1.0000 0.0000
vn -0.0000 -1.0000 0.0000
vn 1.0000 0.0000 0.0000
vn 1.0000 0.0000 0.0000
vn 1.0000 0.0000 0.0000
vn 1.0000 0.0000 0.0000
vn 1.0000 0.0000 0.0000
vn 1.0000 0.0000 0.0000
# 12 vertex normals

vt 0.6712 0.7224 0.0000
vt 0.6712 0.7433 0.0000
vt 0.5605 0.7433 0.0000
vt 0.5605 0.7224 0.0000
vt 0.2714 0.0505 0.0000
vt 0.2714 0.0295 0.0000
vt 0.5357 0.0295 0.0000
vt 0.5357 0.0505 0.0000
# 8 texture coords

g FL7_1
s 1
f 2/2/1 4/3/2 3/4/3 
f 3/4/4 1/1/5 2/2/6 
s off
f 2/5/7 1/6/8 5/7/9 
f 5/7/10 6/8/11 2/5/12 
# 4 faces

