# 3ds Max Wavefront OBJ Exporter v0.97b - (c)2007 guruware
# File Created: 29.08.2014 11:15:29

#
# object FL7_23
#

v  -80.6808 -34.8694 23.3409
v  -80.6808 -34.8694 20.2675
v  -64.8511 -34.8694 20.2675
v  -64.8511 -34.8694 23.3409
v  -87.5838 -4.7766 23.3409
v  -87.5838 -4.7766 20.2675
# 6 vertices

vn -0.0000 -1.0000 0.0000
vn -0.0000 -1.0000 0.0000
vn -0.0000 -1.0000 0.0000
vn -0.0000 -1.0000 0.0000
vn -0.0000 -1.0000 0.0000
vn -0.0000 -1.0000 0.0000
vn -0.9747 -0.2236 0.0000
vn -0.9747 -0.2236 0.0000
vn -0.9747 -0.2236 0.0000
vn -0.9747 -0.2236 0.0000
vn -0.9747 -0.2236 0.0000
vn -0.9747 -0.2236 0.0000
# 12 vertex normals

vt 0.7858 0.8367 0.0000
vt 0.7858 0.8575 0.0000
vt 0.6788 0.8575 0.0000
vt 0.6788 0.8367 0.0000
vt 0.8188 0.1149 0.0000
vt 0.8188 0.1359 0.0000
vt 0.6127 0.1359 0.0000
vt 0.6127 0.1149 0.0000
# 8 texture coords

g FL7_23
s 1
f 4/2/1 1/3/2 2/4/3 
f 2/4/4 3/1/5 4/2/6 
s off
f 2/5/7 1/6/8 5/7/9 
f 5/7/10 6/8/11 2/5/12 
# 4 faces

