# 3ds Max Wavefront OBJ Exporter v0.97b - (c)2007 guruware
# File Created: 29.08.2014 11:15:15

#
# object FL7_2
#

v  123.1819 26.4350 20.2675
v  123.1819 26.4350 23.3409
v  106.9031 26.4350 20.2675
v  106.9031 26.4350 23.3409
v  123.1819 4.5141 20.2675
v  123.1819 4.5141 23.3409
# 6 vertices

vn 0.0000 1.0000 0.0000
vn 0.0000 1.0000 0.0000
vn 0.0000 1.0000 0.0000
vn 0.0000 1.0000 0.0000
vn 0.0000 1.0000 0.0000
vn 0.0000 1.0000 0.0000
vn 1.0000 0.0000 0.0000
vn 1.0000 0.0000 0.0000
vn 1.0000 0.0000 0.0000
vn 1.0000 0.0000 0.0000
vn 1.0000 0.0000 0.0000
vn 1.0000 0.0000 0.0000
# 12 vertex normals

vt 0.6656 0.6910 0.0000
vt 0.7764 0.6910 0.0000
vt 0.7764 0.7119 0.0000
vt 0.6656 0.7119 0.0000
vt 0.4746 0.3879 0.0000
vt 0.4746 0.4088 0.0000
vt 0.3254 0.4088 0.0000
vt 0.3254 0.3879 0.0000
# 8 texture coords

g FL7_2
s 1
f 2/4/1 1/1/2 3/2/3 
f 3/2/4 4/3/5 2/4/6 
s off
f 1/5/7 2/6/8 6/7/9 
f 6/7/10 5/8/11 1/5/12 
# 4 faces

