# 3ds Max Wavefront OBJ Exporter v0.97b - (c)2007 guruware
# File Created: 29.08.2014 11:15:25

#
# object FL7_4
#

v  106.9031 26.4350 20.2675
v  106.9031 26.4350 23.3409
v  83.8313 26.4350 20.2675
v  83.8313 26.4350 23.3409
# 4 vertices

vn 0.0000 1.0000 0.0000
vn 0.0000 1.0000 0.0000
vn 0.0000 1.0000 0.0000
vn 0.0000 1.0000 0.0000
vn 0.0000 1.0000 0.0000
vn 0.0000 1.0000 0.0000
# 6 vertex normals

vt 0.7544 0.1775 0.0000
vt 0.9113 0.1775 0.0000
vt 0.9113 0.1984 0.0000
vt 0.7544 0.1984 0.0000
# 4 texture coords

g FL7_4
s 1
f 2/4/1 1/1/2 3/2/3 
f 3/2/4 4/3/5 2/4/6 
# 2 faces

