# 3ds Max Wavefront OBJ Exporter v0.97b - (c)2007 guruware
# File Created: 29.08.2014 11:15:36

#
# object FL8_17
#

v  -17.7075 -34.8694 23.3409
v  -17.7075 -34.8694 26.4496
v  -33.3951 -34.8694 23.3409
v  -33.3951 -34.8694 26.4496
# 4 vertices

vn 0.0000 -1.0000 0.0000
vn 0.0000 -1.0000 0.0000
vn 0.0000 -1.0000 0.0000
vn 0.0000 -1.0000 0.0000
vn 0.0000 -1.0000 0.0000
vn 0.0000 -1.0000 0.0000
# 6 vertex normals

vt 0.1087 0.9731 0.0000
vt 0.1087 0.9942 0.0000
vt 0.0020 0.9942 0.0000
vt 0.0020 0.9731 0.0000
# 4 texture coords

g FL8_17
s 1
f 2/2/1 4/3/2 3/4/3 
f 3/4/4 1/1/5 2/2/6 
# 2 faces

