# 3ds Max Wavefront OBJ Exporter v0.97b - (c)2007 guruware
# File Created: 29.08.2014 11:15:51

#
# object FL8_3
#

v  106.9031 -34.8694 23.3409
v  83.8313 -34.8694 23.3409
v  106.9031 -34.8694 26.4496
v  83.8313 -34.8694 26.4496
# 4 vertices

vn 0.0000 -1.0000 0.0000
vn 0.0000 -1.0000 0.0000
vn 0.0000 -1.0000 0.0000
vn 0.0000 -1.0000 0.0000
vn 0.0000 -1.0000 0.0000
vn 0.0000 -1.0000 0.0000
# 6 vertex normals

vt 0.4818 0.3588 0.0000
vt 0.4818 0.3799 0.0000
vt 0.3249 0.3799 0.0000
vt 0.3249 0.3588 0.0000
# 4 texture coords

g FL8_3
s 1
f 3/2/1 4/3/2 2/4/3 
f 2/4/4 1/1/5 3/2/6 
# 2 faces

