# 3ds Max Wavefront OBJ Exporter v0.97b - (c)2007 guruware
# File Created: 29.08.2014 11:15:12

#
# object FL8_16
#

v  -2.0993 26.4350 23.3409
v  -2.0993 26.4350 26.4496
v  -17.7075 26.4350 23.3409
v  -17.7075 26.4350 26.4496
# 4 vertices

vn 0.0000 1.0000 0.0000
vn 0.0000 1.0000 0.0000
vn 0.0000 1.0000 0.0000
vn 0.0000 1.0000 0.0000
vn 0.0000 1.0000 0.0000
vn 0.0000 1.0000 0.0000
# 6 vertex normals

vt 0.4500 0.9150 0.0000
vt 0.5562 0.9150 0.0000
vt 0.5562 0.9362 0.0000
vt 0.4500 0.9362 0.0000
# 4 texture coords

g FL8_16
s 1
f 2/4/1 1/1/2 3/2/3 
f 3/2/4 4/3/5 2/4/6 
# 2 faces

