# 3ds Max Wavefront OBJ Exporter v0.97b - (c)2007 guruware
# File Created: 29.08.2014 11:15:33

#
# object FL8_19
#

v  -48.9701 -34.8694 23.3409
v  -33.3951 -34.8694 23.3409
v  -48.9701 -34.8694 26.4496
v  -33.3951 -34.8694 26.4496
# 4 vertices

vn 0.0000 -1.0000 0.0000
vn 0.0000 -1.0000 0.0000
vn 0.0000 -1.0000 0.0000
vn 0.0000 -1.0000 0.0000
vn 0.0000 -1.0000 0.0000
vn 0.0000 -1.0000 0.0000
# 6 vertex normals

vt 0.6688 0.8891 0.0000
vt 0.6688 0.9102 0.0000
vt 0.5629 0.9102 0.0000
vt 0.5629 0.8891 0.0000
# 4 texture coords

g FL8_19
s 1
f 4/2/1 3/3/2 1/4/3 
f 1/4/4 2/1/5 4/2/6 
# 2 faces

