# 3ds Max Wavefront OBJ Exporter v0.97b - (c)2007 guruware
# File Created: 29.08.2014 11:15:12

#
# object FL9_18
#

v  -17.7075 26.4350 26.4496
v  -17.7075 26.4350 29.5426
v  -33.3951 26.4350 26.4496
v  -33.3951 26.4350 29.5426
# 4 vertices

vn 0.0000 1.0000 0.0000
vn 0.0000 1.0000 0.0000
vn 0.0000 1.0000 0.0000
vn 0.0000 1.0000 0.0000
vn 0.0000 1.0000 0.0000
vn 0.0000 1.0000 0.0000
# 6 vertex normals

vt 0.7909 0.8099 0.0000
vt 0.8976 0.8099 0.0000
vt 0.8976 0.8309 0.0000
vt 0.7909 0.8309 0.0000
# 4 texture coords

g FL9_18
s 1
f 2/4/1 1/1/2 3/2/3 
f 3/2/4 4/3/5 2/4/6 
# 2 faces

